D:\school\WTK\thesis\model\3dpredictsim\Results\Batchsim_tmt_linear_v2\Pog_s1_tmt_bCst_d02_k2000_ig24_pas_GRF.mot
nRows=12
nColumns=19

name D:\school\WTK\thesis\model\3dpredictsim\Results\Batchsim_tmt_linear_v2\Pog_s1_tmt_bCst_d02_k2000_ig24_pas_GRF.mot
datacolumns 19
datarows 12
range 0.0000000000 0.1173578894
endheader
time 	ground_force_vx	ground_force_vy	ground_force_vz	ground_force_px	ground_force_py	ground_force_pz	1_ground_force_vx	1_ground_force_vy	1_ground_force_vz	1_ground_force_px	1_ground_force_py	1_ground_force_pz	ground_torque_x	ground_torque_y	ground_torque_z	1_ground_torque_x	1_ground_torque_y	1_ground_torque_z
        0.0000000000	      -61.5812215203	       42.4158207241	        9.7840942059	        0.1595499188	        0.0000000000	        0.0465630005	      126.6673068691	      537.7853161988	        3.9709861013	       -0.3445392010	        0.0000000000	       -0.0497520417	        0.0000000000	        0.0000000000	        0.0000000000	        0.0000000000	        0.0000000000	        0.0000000000	
        0.0106688990	     -111.9888813917	       95.3416725927	       24.5313538640	        0.1702567876	        0.0000000000	        0.0448075700	      104.0934621141	      454.8048468061	       -0.7700904923	       -0.3353841680	        0.0000000000	       -0.0487511208	        0.0000000000	        0.0000000000	        0.0000000000	        0.0000000000	        0.0000000000	        0.0000000000	
        0.0213377981	     -113.5759414573	      203.3106156346	       49.2831944830	        0.1772334267	        0.0000000000	        0.0439364266	       71.3768358966	      357.3238166357	       -6.1449566480	       -0.3207491754	        0.0000000000	       -0.0468596455	        0.0000000000	        0.0000000000	        0.0000000000	        0.0000000000	        0.0000000000	        0.0000000000	
        0.0320066971	      -58.0957415907	      367.1602291101	        7.9113050868	        0.1822387474	        0.0000000000	        0.0431642109	       36.8412307858	      258.6633388831	       -5.5439317639	       -0.2978950614	        0.0000000000	       -0.0435465978	        0.0000000000	        0.0000000000	        0.0000000000	        0.0000000000	        0.0000000000	        0.0000000000	
        0.0426755961	      -67.0000488222	      565.8764264816	       -5.4894559180	        0.1904241816	        0.0000000000	        0.0453311547	       10.8301322990	      178.3562985159	       -7.2641298852	       -0.2678493479	        0.0000000000	       -0.0379247930	        0.0000000000	        0.0000000000	        0.0000000000	        0.0000000000	        0.0000000000	        0.0000000000	
        0.0533444952	     -104.6755443235	      765.4100486392	      -12.9385290888	        0.1990323817	        0.0000000000	        0.0480315945	       -1.5529656161	      143.5420629661	      -12.2603250923	       -0.2564952937	        0.0000000000	       -0.0349960558	        0.0000000000	        0.0000000000	        0.0000000000	        0.0000000000	        0.0000000000	        0.0000000000	
        0.0640133942	     -121.9772055865	      872.2905772484	      -15.9326203279	        0.2048875016	        0.0000000000	        0.0497252606	       -1.5279260165	      113.7239091019	      -15.0720750229	       -0.2559965791	        0.0000000000	       -0.0352848206	        0.0000000000	        0.0000000000	        0.0000000000	        0.0000000000	        0.0000000000	        0.0000000000	
        0.0746822932	     -119.3471034363	      885.2270440408	      -16.6062498612	        0.2091676706	        0.0000000000	        0.0508264950	       -3.1371611907	       80.1328398964	      -15.8499150131	       -0.2554102933	        0.0000000000	       -0.0354844897	        0.0000000000	        0.0000000000	        0.0000000000	        0.0000000000	        0.0000000000	        0.0000000000	
        0.0853511923	     -109.8093605061	      852.5600560230	      -16.1181727493	        0.2128378998	        0.0000000000	        0.0516348068	       -6.8101017670	       44.1978012298	      -12.5231681636	       -0.2551420145	        0.0000000000	       -0.0355227422	        0.0000000000	        0.0000000000	        0.0000000000	        0.0000000000	        0.0000000000	        0.0000000000	
        0.0960200913	      -99.2216979925	      817.6520421217	      -14.3734276984	        0.2166316149	        0.0000000000	        0.0522917256	       -6.3809789116	        8.7639297470	       -2.7683624000	        0.0000000000	        0.0000000000	        0.0000000000	        0.0000000000	        0.0000000000	        0.0000000000	        0.0000000000	        0.0000000000	        0.0000000000	
        0.1066889903	      -91.2660451384	      801.2287919489	      -15.8343820308	        0.2216198493	        0.0000000000	        0.0530019214	        0.0042817351	       -0.0038604603	        0.0002239200	        0.0000000000	        0.0000000000	        0.0000000000	        0.0000000000	        0.0000000000	        0.0000000000	        0.0000000000	        0.0000000000	        0.0000000000	
        0.1173578894	      -84.7758112731	      787.0937664178	      -16.1941864002	        0.2278784179	        0.0000000000	        0.0532752785	        0.0001941781	       -0.0001483731	        0.0000009168	        0.0000000000	        0.0000000000	        0.0000000000	        0.0000000000	        0.0000000000	        0.0000000000	        0.0000000000	        0.0000000000	        0.0000000000	
